# xmcd
#
# Track frame offsets:
#	150
#	5403
#	12079
#	30145
#	46174
#	64628
#	81731
#	99915
#	115074
#	135811
#	152927
#	169052
#	187355
#	208907
#
# Disc length: 3045 seconds
#
# Revision: 1
# Processed by: cddbd v1.5.2PL0 Copyright (c) Steve Scherf et al.
# Submitted via: audiograbber 1.83.01
#
DISCID=ad0be30e
DTITLE=Carrie Underwood - Greatest Hits Decade #1
DYEAR=2014
DGENRE=Country
TTITLE0=Deck The Halls
TTITLE1=God Rest Ye Merry Gentlemen
TTITLE2=Something In The Water
TTITLE3=Little Toy Guns
TTITLE4=Inside Your Heaven
TTITLE5=Jesus, Take The Wheel
TTITLE6=Don't Forget To Remember Me
TTITLE7=Before He Cheats
TTITLE8=Wasted
TTITLE9=So Small
TTITLE10=All-American Girl
TTITLE11=Last Name
TTITLE12=Just A Dream
TTITLE13=I Told You So (Feat. Randy Travis)
EXTD=
EXTT0=
EXTT1=
EXTT2=
EXTT3=
EXTT4=
EXTT5=
EXTT6=
EXTT7=
EXTT8=
EXTT9=
EXTT10=
EXTT11=
EXTT12=
EXTT13=
PLAYORDER=
